<svg xmlns="http://www.w3.org/2000/svg">
    <symbol id = "search" viewBox="0 0 24 24">
    <g>
        <path fill-rule="evenodd" clip-rule="evenodd" d="M19.9303 10.7726C19.9303 15.5843 15.95 19.5452 10.9652 19.5452C5.98029 19.5452 2 15.5843 2 10.7726C2 5.96089 5.98029 2 10.9652 2C15.95 2 19.9303 5.96089 19.9303 10.7726ZM17.7792 19.2132C15.908 20.6732 13.5403 21.5452 10.9652 21.5452C4.90927 21.5452 0 16.7222 0 10.7726C0 4.82306 4.90927 0 10.9652 0C17.021 0 21.9303 4.82306 21.9303 10.7726C21.9303 13.5175 20.8853 16.0227 19.1649 17.925L24 22.6752L22.6515 24L17.7792 19.2132Z"/>
    </g>
    </symbol>

       <symbol id = "close" viewBox="0 0 24 24">
        <g>
      <path fill-rule="evenodd" clip-rule="evenodd" d="M22 12C22 17.5228 17.5228 22 12 22C6.47715 22 2 17.5228 2 12C2 6.47715 6.47715 2 12 2C17.5228 2 22 6.47715 22 12ZM24 12C24 18.6274 18.6274 24 12 24C5.37258 24 0 18.6274 0 12C0 5.37258 5.37258 0 12 0C18.6274 0 24 5.37258 24 12ZM7.30432 15.5524L10.6035 12.2532L7.3043 8.95397L8.95392 7.30435L12.2532 10.6036L15.5524 7.30435L17.202 8.95396L13.9028 12.2532L17.202 15.5524L15.5524 17.202L12.2532 13.9028L8.95394 17.202L7.30432 15.5524Z" />
    </g>
    </symbol>
</svg>



</svg>
